<svg width="966" height="993" viewBox="0 0 966 993" fill="none" xmlns="http://www.w3.org/2000/svg">
<path d="M892.875 567.728L866.475 665.228L921.575 717.828L879.775 790.128L807.275 765.228L737.075 838.828L758.475 909.928L683.575 954.528L632.175 895.528L540.075 921.928L524.575 992.128H441.175L425.675 921.928L333.575 895.528L282.275 954.528L207.375 909.928L228.675 838.828L158.575 765.228L86.0748 790.128L44.2748 717.828L99.3748 665.228L72.9748 567.728L0.274805 555.228L0.174805 502.328L95.5748 503.428V503.328H95.9748L482.875 0.828308L869.875 503.328H870.175V503.428L965.575 502.328V555.228L892.875 567.728Z" fill="white"/>
<path d="M870.175 503.328V503.428C870.175 717.328 696.775 890.628 482.875 890.628C270.675 890.628 98.2748 719.828 95.6748 508.228C95.6748 506.628 95.6748 505.028 95.6748 503.428V503.328H128.575C128.575 504.928 128.575 506.628 128.575 508.228C131.175 702.328 288.875 858.828 482.875 858.828C676.975 858.828 834.575 702.328 837.175 508.228C837.175 506.628 837.175 504.928 837.175 503.328H870.175Z" fill="#003BB7"/>
<path d="M482.875 17.2283L861.875 509.428L861.975 509.528L864.975 513.328H869.875H870.175H870.275H870.375L955.675 512.328L955.575 546.628L891.175 557.928L884.875 559.028L883.175 565.128L856.775 662.628L855.175 668.328L859.475 672.428L908.875 719.628L875.175 778.028L810.475 755.728L804.375 753.628L799.975 758.228L729.875 831.828L725.875 836.028L727.575 841.628L746.675 905.228L685.675 941.528L639.775 888.928L635.575 884.128L629.475 885.928L537.375 912.328L531.675 913.928L530.375 919.728L516.675 982.128H449.175L435.475 919.828L434.175 914.028L428.475 912.428L336.375 886.028L330.275 884.228L326.075 889.028L280.175 941.628L219.175 905.328L238.275 841.728L239.975 836.128L235.975 831.928L165.875 758.328L161.475 753.728L155.375 755.828L90.6748 778.128L56.9748 719.728L106.375 672.528L110.675 668.428L109.075 662.728L82.6748 565.228L80.9748 559.128L74.6748 558.028L10.2748 546.928L10.1748 512.428L95.4748 513.428H95.5748H95.6748H95.9748H100.875L103.875 509.628L103.975 509.528L482.875 17.2283ZM482.875 0.828308L95.9748 503.328L95.8748 503.428H95.5748L0.174805 502.328L0.274805 555.128L72.9748 567.728L99.3748 665.228L44.2748 717.828L86.0748 790.128L158.575 765.228L228.675 838.828L207.375 909.928L282.275 954.428L333.575 895.528L425.675 921.928L441.075 992.128H524.475L539.975 921.928L632.075 895.528L683.375 954.428L758.275 909.928L737.075 838.828L807.175 765.228L879.675 790.128L921.475 717.828L866.375 665.228L892.775 567.728L965.475 555.128L965.575 502.328L870.175 503.428H869.875L869.775 503.328L482.875 0.828308Z" fill="#012A93"/>
<path d="M782.275 503.328C780.375 670.328 647.075 805.128 482.975 805.128C318.875 805.128 185.575 670.328 183.575 503.328H193.675C194.375 664.928 323.075 795.828 481.675 795.828C640.275 795.828 768.975 665.028 769.675 503.328H782.275Z" fill="#012A93"/>
<path d="M860.075 513.328C858.875 560.728 848.875 606.828 830.475 650.228C811.475 695.128 784.275 735.428 749.575 770.128C714.875 804.728 674.575 831.928 629.675 850.928C583.175 870.628 533.775 880.528 482.875 880.528C432.275 880.528 383.275 870.728 337.075 851.328C292.475 832.628 252.275 805.828 217.675 771.628C183.075 737.428 155.775 697.628 136.575 653.228C117.375 608.928 106.975 561.828 105.675 513.228H118.575C123.975 709.828 286.375 868.828 482.875 868.828C679.475 868.828 841.875 709.728 847.075 513.228H860.075M870.175 503.328H837.275C837.275 504.928 837.275 506.628 837.275 508.228C834.575 702.328 676.975 858.828 482.875 858.828C288.875 858.828 131.175 702.328 128.575 508.228C128.575 506.628 128.575 504.928 128.575 503.328H95.5747V503.428C95.5747 505.028 95.5747 506.628 95.5747 508.228C98.1747 719.828 270.575 890.628 482.875 890.628C696.775 890.628 870.075 717.328 870.175 503.428V503.328Z" fill="#012A93"/>
<path d="M866.075 508.228H80.7749" stroke="#012A93" stroke-width="10" stroke-miterlimit="10"/>
<path d="M507.975 94.4283V503.228H469.175V392.428H408.675C408.675 392.428 390.175 503.328 264.475 503.328H157.575V449.828C157.575 449.828 316.875 483.628 350.175 386.328C383.475 289.028 430.375 94.4283 430.375 94.4283H507.975Z" fill="#003BB7"/>
<path d="M502.975 99.4283V498.228H474.175V392.428V387.428H469.175H408.675H404.475L403.775 391.628C403.775 391.928 398.975 418.828 379.475 445.328C368.075 460.728 353.975 473.028 337.475 481.828C316.775 492.828 292.275 498.428 264.575 498.428H162.575V456.028C172.475 457.728 193.275 460.728 218.175 460.728C269.175 460.728 334.375 448.128 354.875 388.128C385.275 299.228 427.475 127.428 434.275 99.6283H502.975M507.975 94.4283H430.275C430.275 94.4283 383.375 289.028 350.075 386.328C330.475 443.728 266.875 455.528 218.075 455.528C184.175 455.528 157.475 449.828 157.475 449.828V503.228H264.375C390.075 503.228 408.575 392.328 408.575 392.328H469.075V503.228H507.875V94.4283H507.975Z" fill="#012A93"/>
<path d="M415.875 353.128L448.375 226.528H468.075V353.128H415.875Z" fill="white"/>
<path d="M465.575 229.028V350.628H419.075L450.275 229.028H465.575ZM470.575 224.028H446.375L412.575 355.628H470.575V224.028Z" fill="#012A93"/>
<path d="M808.275 442.228V503.328H507.975V94.4283H538.275C538.275 94.4283 587.475 426.328 673.675 442.228C759.875 458.128 808.275 442.228 808.275 442.228Z" fill="#DB2C1E"/>
<path d="M533.975 99.4283C536.875 117.528 548.875 190.228 568.775 263.628C582.275 313.228 596.675 353.528 611.575 383.328C620.575 401.228 629.875 415.628 639.275 426.028C650.075 437.928 661.275 445.028 672.675 447.128C698.375 451.828 723.375 454.228 746.775 454.228C774.775 454.228 793.875 450.828 803.175 448.628V498.228H512.975V99.4283H533.975ZM538.275 94.4283H507.975V503.228H808.275V442.128C808.275 442.128 786.775 449.228 746.875 449.228C726.975 449.228 702.375 447.428 673.675 442.128C587.475 426.328 538.275 94.4283 538.275 94.4283Z" fill="#9B0000"/>
<path d="M319.375 554.128C321.175 554.128 322.675 555.628 322.675 557.428V563.928C322.675 565.728 321.175 567.228 319.375 567.228H288.675C286.875 567.228 285.375 568.728 285.375 570.528V589.228C285.375 591.028 286.875 592.528 288.675 592.528H323.175C324.975 592.528 326.475 594.028 326.475 595.828V659.228C326.475 661.028 324.975 662.528 323.175 662.528H260.675C258.875 662.528 257.375 661.028 257.375 659.228V557.428C257.375 555.628 258.875 554.128 260.675 554.128H319.375ZM319.375 550.128H260.775C256.775 550.128 253.475 553.428 253.475 557.428V659.128C253.475 663.128 256.775 666.428 260.775 666.428H323.175C327.175 666.428 330.475 663.128 330.475 659.128V595.728C330.475 591.728 327.175 588.428 323.175 588.428H289.275V571.128H319.275C323.275 571.128 326.575 567.828 326.575 563.828V557.328C326.675 553.428 323.375 550.128 319.375 550.128Z" fill="#9F0000"/>
<path d="M299.075 608.328C300.175 608.328 301.075 609.228 301.075 610.328V648.328C301.075 649.428 300.175 650.328 299.075 650.328H287.375C286.275 650.328 285.375 649.428 285.375 648.328V610.328C285.375 609.228 286.275 608.328 287.375 608.328H299.075ZM299.075 604.328H287.375C284.075 604.328 281.375 607.028 281.375 610.328V648.328C281.375 651.628 284.075 654.328 287.375 654.328H299.075C302.375 654.328 305.075 651.628 305.075 648.328V610.328C305.075 606.928 302.375 604.328 299.075 604.328Z" fill="#9F0000"/>
<path d="M413.375 572.728C414.875 572.728 416.175 574.028 416.175 575.528V661.628C416.175 663.128 414.875 664.428 413.375 664.428H383.775C382.275 664.428 380.975 663.128 380.975 661.628V660.228C380.975 658.728 379.675 657.428 378.175 657.428H375.275C373.775 657.428 372.475 658.728 372.475 660.228V675.528C372.475 677.028 371.175 678.328 369.675 678.328H352.075C350.575 678.328 349.275 677.028 349.275 675.528V575.528C349.275 573.928 350.575 572.728 352.075 572.728H374.375C375.975 572.728 377.175 574.028 377.175 575.528V575.728C377.175 577.228 378.475 578.528 379.975 578.528H384.775C386.375 578.528 387.575 577.228 387.575 575.728C387.575 574.028 388.875 572.728 390.575 572.728H413.375ZM413.375 568.728H390.575C387.075 568.728 384.275 571.228 383.675 574.528H381.075C380.575 571.228 377.775 568.728 374.375 568.728H352.075C348.275 568.728 345.275 571.828 345.275 575.528V675.628C345.275 679.428 348.375 682.428 352.075 682.428H369.675C373.475 682.428 376.475 679.328 376.475 675.628V661.528H376.975V661.728C376.975 665.528 380.075 668.528 383.775 668.528H413.375C417.175 668.528 420.175 665.428 420.175 661.728V575.628C420.175 571.828 417.175 568.728 413.375 568.728Z" fill="#9F0000"/>
<path d="M384.175 587.028C386.475 587.028 388.375 588.928 388.375 591.228V646.028C388.375 648.328 386.475 650.228 384.175 650.228H380.175C377.875 650.228 375.975 648.328 375.975 646.028V591.228C375.975 588.928 377.875 587.028 380.175 587.028H384.175ZM384.175 583.028H380.175C375.675 583.028 371.975 586.728 371.975 591.228V646.028C371.975 650.528 375.675 654.228 380.175 654.228H384.175C388.675 654.228 392.375 650.528 392.375 646.028V591.228C392.275 586.728 388.675 583.028 384.175 583.028Z" fill="#9F0000"/>
<path d="M501.675 554.128C503.475 554.128 504.875 555.628 504.875 557.428V661.528C504.875 663.328 503.375 664.828 501.675 664.828H486.975C485.175 664.828 483.675 663.328 483.675 661.528V615.828C483.675 614.028 482.175 612.628 480.475 612.628H479.775C478.375 612.628 477.175 613.528 476.675 614.728L459.175 662.628C458.675 663.928 457.475 664.728 456.075 664.728H439.375C437.575 664.728 436.075 663.228 436.075 661.428V557.428C436.075 555.628 437.575 554.128 439.375 554.128H455.075C456.875 554.128 458.275 555.628 458.275 557.428V599.028C458.275 600.828 459.775 602.228 461.475 602.228H462.075C463.475 602.228 464.775 601.328 465.175 599.928L479.175 556.328C479.575 555.028 480.875 554.028 482.275 554.028H501.675M501.675 550.128H482.475C479.275 550.128 476.575 552.128 475.575 555.128L462.475 596.028V557.428C462.475 553.428 459.175 550.128 455.275 550.128H439.575C435.575 550.128 432.275 553.428 432.275 557.428V661.528C432.275 665.528 435.575 668.828 439.575 668.828H456.275C459.275 668.828 462.075 666.928 463.075 664.028L479.875 618.328V661.528C479.875 665.528 483.175 668.828 487.175 668.828H501.875C505.875 668.828 509.075 665.528 509.075 661.528V557.428C508.975 553.428 505.675 550.128 501.675 550.128Z" fill="#9F0000"/>
<path d="M620.175 556.328C621.575 556.328 622.675 557.428 622.675 558.828V660.028C622.675 661.428 621.575 662.528 620.175 662.528H605.475C604.075 662.528 602.975 661.428 602.975 660.028V586.728C602.975 585.328 601.875 584.228 600.475 584.228H597.275C596.075 584.228 595.075 585.128 594.875 586.328L582.675 662.728C582.475 663.928 581.475 664.828 580.275 664.828H571.975C570.775 664.828 569.775 664.028 569.575 662.828L554.875 585.228C554.675 584.028 553.675 583.228 552.475 583.228H550.775C549.375 583.228 548.275 584.328 548.275 585.728V662.328C548.275 663.728 547.175 664.828 545.775 664.828H528.975C527.575 664.828 526.475 663.728 526.475 662.328V558.828C526.475 557.428 527.575 556.328 528.975 556.328H560.175C561.275 556.328 562.275 557.128 562.575 558.228L573.575 603.028C573.875 604.128 574.875 604.928 575.975 604.928H576.675C577.875 604.928 578.875 604.028 579.075 602.928L586.675 558.528C586.875 557.328 587.875 556.528 589.075 556.528H620.175M620.175 552.328H589.075C585.875 552.328 583.275 554.628 582.675 557.728L576.075 596.328L566.475 557.228C565.775 554.328 563.175 552.328 560.175 552.328H528.975C525.375 552.328 522.475 555.228 522.475 558.828V662.328C522.475 665.928 525.375 668.828 528.975 668.828H545.775C549.375 668.828 552.275 665.928 552.275 662.328V593.128L565.675 663.528C566.275 666.528 568.875 668.728 571.975 668.728H580.275C583.475 668.728 586.175 666.428 586.675 663.328L598.675 588.228H598.975V659.928C598.975 663.528 601.875 666.428 605.475 666.428H620.175C623.775 666.428 626.675 663.528 626.675 659.928V558.828C626.675 555.228 623.775 552.328 620.175 552.328Z" fill="#9F0000"/>
<path d="M705.375 554.128C706.975 554.128 708.275 555.428 708.275 557.028V566.728C708.275 568.328 706.975 569.628 705.375 569.628H690.075C688.475 569.628 687.175 570.928 687.175 572.528V659.328C687.175 660.928 685.875 662.228 684.275 662.228H662.775C661.175 662.228 659.875 660.928 659.875 659.328V573.628C659.875 572.028 658.575 570.728 656.975 570.728H641.175C639.575 570.728 638.275 569.428 638.275 567.828V557.028C638.275 555.428 639.575 554.128 641.175 554.128H705.375ZM705.375 550.128H641.075C637.275 550.128 634.175 553.228 634.175 557.028V567.828C634.175 571.628 637.275 574.728 641.075 574.728H655.775V659.428C655.775 663.228 658.875 666.328 662.675 666.328H684.175C687.975 666.328 691.075 663.228 691.075 659.428V573.728H705.275C709.075 573.728 712.175 570.628 712.175 566.828V557.128C712.275 553.228 709.175 550.128 705.375 550.128Z" fill="#9F0000"/>
<path d="M417.375 805.928L402.775 802.428L393.875 839.228" stroke="#012A93" stroke-width="5" stroke-miterlimit="10"/>
<path d="M473.575 850.228V812.328H492.175V850.228" stroke="#012A93" stroke-width="5" stroke-miterlimit="10"/>
<path d="M425.375 845.928L434.575 808.928L448.075 811.028L447.075 849.228" stroke="#012A93" stroke-width="5" stroke-miterlimit="10"/>
<path d="M447.375 838.028L428.075 835.028" stroke="#012A93" stroke-width="5" stroke-miterlimit="10"/>
<path d="M520.075 810.128C514.675 810.928 510.875 816.028 511.775 821.528L514.475 839.328C515.275 844.728 520.375 848.528 525.875 847.628C531.275 846.828 535.075 841.728 534.175 836.228L531.475 818.428C530.575 813.028 525.475 809.228 520.075 810.128Z" stroke="#012A93" stroke-width="5" stroke-miterlimit="10"/>
<path d="M543.975 806.228C543.975 806.228 547.875 820.828 552.975 823.528C552.975 823.528 557.175 827.028 563.775 825.728" stroke="#012A93" stroke-width="5" stroke-miterlimit="10"/>
<path d="M561.275 802.028C561.275 802.028 571.075 837.528 552.875 843.128" stroke="#012A93" stroke-width="5" stroke-miterlimit="10"/>
</svg>
